<mxfile host="app.diagrams.net" modified="2020-08-11T10:45:28.103Z" agent="5.0 (Macintosh; Intel Mac OS X 10_15_4) AppleWebKit/537.36 (KHTML, like Gecko) Chrome/81.0.4044.138 Safari/537.36" etag="7DtIMxzyovs8yd49fmCs" version="13.6.2" type="github">
  <diagram id="EsEDgRFDrpBIyVsQqK51" name="Page-1">
    <mxGraphModel dx="2103" dy="1229" grid="1" gridSize="10" guides="1" tooltips="1" connect="1" arrows="1" fold="1" page="1" pageScale="1" pageWidth="850" pageHeight="1100" math="0" shadow="0">
      <root>
        <mxCell id="0" />
        <mxCell id="1" parent="0" />
        <mxCell id="9Ym3SB5ZmzGsohRSd5UU-1" value="U-Boot" style="rounded=1;whiteSpace=wrap;html=1;fillColor=#fa6800;strokeColor=#C73500;arcSize=12;fontStyle=1" vertex="1" parent="1">
          <mxGeometry x="300" y="630" width="180" height="60" as="geometry" />
        </mxCell>
        <mxCell id="9Ym3SB5ZmzGsohRSd5UU-2" value="&lt;font&gt;Linux Kernel&lt;/font&gt;" style="whiteSpace=wrap;html=1;rounded=1;strokeColor=#BD7000;fillColor=#f0a30a;fontStyle=1" vertex="1" parent="1">
          <mxGeometry x="300" y="570" width="180" height="60" as="geometry" />
        </mxCell>
        <mxCell id="9Ym3SB5ZmzGsohRSd5UU-4" value="Linux 系统程序" style="whiteSpace=wrap;html=1;rounded=1;strokeColor=#d79b00;fillColor=#ffe6cc;fontStyle=1;" vertex="1" parent="1">
          <mxGeometry x="300" y="510" width="180" height="60" as="geometry" />
        </mxCell>
        <mxCell id="9Ym3SB5ZmzGsohRSd5UU-5" value="QT监控程序" style="whiteSpace=wrap;html=1;rounded=1;strokeColor=#82b366;fillColor=#d5e8d4;fontStyle=1;" vertex="1" parent="1">
          <mxGeometry x="300" y="450" width="90" height="60" as="geometry" />
        </mxCell>
        <mxCell id="9Ym3SB5ZmzGsohRSd5UU-6" value="QT媒体程序" style="whiteSpace=wrap;html=1;rounded=1;strokeColor=#82b366;fillColor=#d5e8d4;fontStyle=1;" vertex="1" parent="1">
          <mxGeometry x="390" y="450" width="90" height="60" as="geometry" />
        </mxCell>
      </root>
    </mxGraphModel>
  </diagram>
</mxfile>
